<svg width="70" height="71" viewBox="0 0 70 71" fill="none" xmlns="http://www.w3.org/2000/svg">
<path d="M34.965 0.992432C15.645 0.992432 0 16.6374 0 35.9924C0 55.3474 15.645 70.9924 34.965 70.9924C54.285 70.9924 70 55.3474 70 35.9924C70 16.6374 54.32 0.992432 34.965 0.992432ZM35 63.9924C19.53 63.9924 7 51.4624 7 35.9924C7 20.5224 19.53 7.99243 35 7.99243C50.47 7.99243 63 20.5224 63 35.9924C63 51.4624 50.47 63.9924 35 63.9924ZM38.5 28.7824L42.21 32.4924L45.92 28.7824L49.63 32.4924L53.34 28.7824L45.92 21.3624L38.5 28.7824ZM24.08 28.7824L27.79 32.4924L31.5 28.7824L24.08 21.3624L16.66 28.7824L20.37 32.4924L24.08 28.7824ZM35 55.2424C43.155 55.2424 50.085 50.1324 52.885 42.9924H17.115C19.915 50.1324 26.845 55.2424 35 55.2424Z" fill="#69DE6D"/>
</svg>
