<svg width="84" height="84" viewBox="0 0 84 84" fill="none" xmlns="http://www.w3.org/2000/svg">
<path d="M80.5 41.965L71.96 32.2L73.15 19.285L60.515 16.415L53.9 5.25L42 10.36L30.1 5.25L23.485 16.415L10.85 19.25L12.04 32.2L3.5 41.965L12.04 51.73L10.85 64.68L23.485 67.55L30.1 78.75L42 73.605L53.9 78.715L60.515 67.55L73.15 64.68L71.96 51.765L80.5 41.965ZM66.675 47.145L64.715 49.42L64.995 52.395L65.625 59.22L58.975 60.725L56.035 61.39L54.495 63.98L51.03 69.86L44.8 67.165L42 65.975L39.235 67.165L33.005 69.86L29.54 64.015L28 61.425L25.06 60.76L18.41 59.255L19.04 52.395L19.32 49.42L17.36 47.145L12.845 42L17.36 36.82L19.32 34.545L19.005 31.535L18.375 24.745L25.025 23.24L27.965 22.575L29.505 19.985L32.97 14.105L39.2 16.8L42 17.99L44.765 16.8L50.995 14.105L54.46 19.985L56 22.575L58.94 23.24L65.59 24.745L64.96 31.57L64.68 34.545L66.64 36.82L71.155 41.965L66.675 47.145Z" fill="#FC8D26"/>
<path d="M35.315 48.125L27.195 39.97L22.015 45.185L35.315 58.52L61.005 32.76L55.825 27.545L35.315 48.125Z" fill="#FC8D26"/>
</svg>

