<svg width="176" height="126" viewBox="0 0 176 126" fill="none" xmlns="http://www.w3.org/2000/svg">
<path d="M52.6904 84.976H52.5944C52.5304 85.296 52.2104 86.576 51.6344 88.816C51.0904 91.056 50.7384 92.528 50.5784 93.232C50.4184 93.904 50.2744 94.448 50.1464 94.864C50.0504 95.28 49.9384 95.76 49.8104 96.304C49.6824 96.816 49.5544 97.232 49.4264 97.552C49.3304 97.84 49.2344 98.128 49.1384 98.416C48.9464 98.96 48.7544 99.232 48.5624 99.232C48.1464 99.232 47.6024 98.784 46.9304 97.888C46.2584 96.96 45.9224 96.208 45.9224 95.632C45.9224 95.056 46.8344 91.056 48.6584 83.632C50.5144 76.208 51.4744 71.264 51.5384 68.8C51.5384 68.32 51.6504 67.936 51.8744 67.648C52.1944 66.976 53.1384 66.496 54.7064 66.208C56.3064 65.92 58.6264 65.776 61.6664 65.776C64.7384 65.776 67.1384 65.936 68.8664 66.256C70.6264 66.576 71.5064 67.024 71.5064 67.6C71.5064 67.984 71.2344 68.256 70.6904 68.416C70.1464 68.576 69.6664 68.704 69.2504 68.8C68.8344 68.864 68.2904 68.944 67.6184 69.04C66.9464 69.104 66.3224 69.168 65.7464 69.232C65.1704 69.264 64.4184 69.328 63.4904 69.424C62.5944 69.52 61.7624 69.616 60.9944 69.712C60.2264 69.776 59.1864 69.888 57.8744 70.048C56.5624 70.208 55.7144 70.304 55.3304 70.336C55.3624 70.432 55.3784 70.576 55.3784 70.768C55.3784 72.272 54.7544 75.728 53.5064 81.136C55.4904 81.232 57.6184 81.184 59.8904 80.992C62.1944 80.8 63.6024 80.704 64.1144 80.704C65.3304 80.704 65.9384 80.96 65.9384 81.472C65.9384 82.464 64.5464 83.296 61.7624 83.968C59.0104 84.64 55.9864 84.976 52.6904 84.976ZM82.6154 75.472C84.0554 75.472 85.3834 76.208 86.5994 77.68C87.8154 79.12 88.4234 80.432 88.4234 81.616C88.4234 82.768 88.0234 83.952 87.2234 85.168C87.6074 85.648 87.7994 86.064 87.7994 86.416C87.7994 87.312 87.5914 88.848 87.1754 91.024C86.7914 93.2 86.5514 94.624 86.4554 95.296C86.3914 95.968 86.3274 96.512 86.2634 96.928C86.1994 97.312 86.1194 97.696 86.0234 98.08C85.8954 98.88 85.6074 99.28 85.1594 99.28C84.5834 99.28 84.1034 98.784 83.7194 97.792C83.3674 96.768 83.1594 95.456 83.0954 93.856C80.2474 97.472 77.6074 99.28 75.1754 99.28C73.7034 99.28 72.2474 98.656 70.8074 97.408C69.3994 96.128 68.6954 94.816 68.6954 93.472C68.6954 91.552 69.3994 89.184 70.8074 86.368C72.2154 83.52 74.0394 80.992 76.2794 78.784C78.5194 76.576 80.6314 75.472 82.6154 75.472ZM84.8234 83.92C84.8234 80.944 84.2314 79.456 83.0474 79.456C81.7994 79.456 80.3434 80.352 78.6794 82.144C77.0154 83.904 75.6074 85.904 74.4554 88.144C73.3034 90.384 72.7274 92.16 72.7274 93.472C72.7274 94.016 72.9514 94.464 73.3994 94.816C73.8474 95.136 74.3754 95.296 74.9834 95.296C76.4874 95.296 78.1834 94.288 80.0714 92.272C81.9594 90.224 83.2714 87.744 84.0074 84.832C84.1034 84.352 84.3754 84.064 84.8234 83.968V83.92ZM123.403 75.472C124.363 75.472 125.211 76.144 125.947 77.488C126.715 78.8 127.099 80.304 127.099 82C127.099 83.664 126.795 85.84 126.187 88.528C125.611 91.216 124.827 93.68 123.835 95.92C122.843 98.16 121.867 99.28 120.907 99.28C120.235 99.28 119.899 98.848 119.899 97.984C119.899 97.088 120.443 94.928 121.531 91.504C122.651 88.048 123.211 85.312 123.211 83.296C123.211 81.248 122.891 80.224 122.251 80.224C121.451 80.224 120.523 80.928 119.467 82.336C118.443 83.744 117.339 85.44 116.155 87.424C114.971 89.408 114.331 90.48 114.235 90.64C114.139 90.768 114.011 90.96 113.851 91.216C113.723 91.472 113.563 91.744 113.371 92.032C113.211 92.32 112.763 93.184 112.027 94.624C111.323 96.064 110.699 97.2 110.155 98.032C109.611 98.832 109.131 99.232 108.715 99.232C108.331 99.232 107.899 98.976 107.419 98.464C106.939 97.952 106.699 97.472 106.699 97.024C106.699 96.576 106.987 95.648 107.563 94.24C109.227 90.08 110.059 86.208 110.059 82.624C110.059 81.952 109.915 81.392 109.627 80.944C109.339 80.464 109.019 80.224 108.667 80.224C108.315 80.224 107.947 80.384 107.563 80.704C107.179 80.992 106.699 81.536 106.123 82.336C105.547 83.104 105.035 83.84 104.587 84.544C104.139 85.248 103.451 86.352 102.523 87.856C101.627 89.328 100.939 90.432 100.459 91.168C100.011 91.872 99.4834 92.704 98.8754 93.664C98.2674 94.592 97.7874 95.312 97.4354 95.824C97.1154 96.336 96.7474 96.896 96.3314 97.504C95.4674 98.688 94.8274 99.28 94.4114 99.28C94.0274 99.28 93.5154 98.928 92.8754 98.224C92.2354 97.488 91.9154 96.944 91.9154 96.592C91.9154 96.208 91.9794 95.744 92.1074 95.2C92.2354 94.656 92.3634 94.128 92.4914 93.616C92.6514 93.104 92.8754 92.352 93.1634 91.36C93.4834 90.336 93.8354 89.152 94.2194 87.808C94.6354 86.432 94.9394 84.56 95.1314 82.192C95.3554 79.792 95.5154 78.048 95.6114 76.96C95.7074 75.84 95.9794 75.28 96.4274 75.28C97.1314 75.28 97.8194 75.648 98.4914 76.384C99.1954 77.12 99.5474 77.856 99.5474 78.592C99.5474 81.408 98.4914 86.048 96.3794 92.512C99.9634 85.792 102.219 81.808 103.147 80.56C104.075 79.312 104.875 78.304 105.547 77.536C106.795 76.16 108.059 75.472 109.339 75.472C110.107 75.472 111.019 76.144 112.075 77.488C113.163 78.8 113.707 80.128 113.707 81.472C113.707 82.816 113.515 84.48 113.131 86.464C116.907 79.136 120.331 75.472 123.403 75.472ZM136.695 68.656C136.695 68.016 136.951 67.408 137.463 66.832C137.975 66.256 138.487 65.968 138.999 65.968C139.543 65.968 140.183 66.624 140.919 67.936C141.655 69.216 142.023 70.288 142.023 71.152C142.023 71.472 141.879 71.76 141.591 72.016C141.303 72.272 140.999 72.4 140.679 72.4C139.911 72.4 139.047 71.936 138.087 71.008C137.159 70.08 136.695 69.296 136.695 68.656ZM136.455 75.472C137.063 75.472 137.639 75.84 138.183 76.576C138.727 77.312 138.999 78.032 138.999 78.736C138.999 79.44 138.535 81.552 137.607 85.072C136.679 88.56 135.511 92.48 134.103 96.832C133.559 98.432 132.871 99.232 132.039 99.232C131.591 99.232 131.207 99.056 130.887 98.704C130.567 98.32 130.407 97.904 130.407 97.456C130.407 96.976 130.519 96.24 130.743 95.248C130.999 94.224 131.351 92.88 131.799 91.216C132.279 89.52 132.647 88.144 132.903 87.088C133.191 86.032 133.479 84.848 133.767 83.536C134.055 82.192 134.279 81.12 134.439 80.32C134.631 79.488 134.839 78.656 135.062 77.824C135.511 76.256 135.975 75.472 136.455 75.472ZM151.444 66.064C151.444 72.08 150.196 79.888 147.7 89.488C146.1 96.016 144.98 99.28 144.34 99.28C143.892 99.28 143.364 98.928 142.756 98.224C142.18 97.52 141.892 96.976 141.892 96.592C141.892 96.208 142.356 94.224 143.284 90.64C144.212 87.056 145.14 82.656 146.068 77.44C146.996 72.192 147.46 67.472 147.46 63.28C147.46 62.832 147.524 62.512 147.652 62.32C147.78 62.128 148.052 62.032 148.468 62.032C148.884 62.032 149.476 62.496 150.244 63.424C151.044 64.32 151.444 65.2 151.444 66.064ZM172.522 75.472C173.034 75.472 173.578 75.856 174.154 76.624C174.762 77.36 175.066 78.192 175.066 79.12C175.066 79.76 174.41 81.936 173.098 85.648C171.786 89.36 170.89 91.888 170.41 93.232C169.962 94.544 169.338 96.304 168.538 98.512C167.77 100.688 167.018 102.816 166.282 104.896C164.682 109.472 162.282 111.76 159.082 111.76C157.258 111.76 155.514 111.2 153.85 110.08C152.186 108.992 151.354 107.856 151.354 106.672C151.354 106.224 151.562 105.728 151.978 105.184C152.362 104.64 152.698 104.368 152.986 104.368C153.274 104.368 153.738 104.72 154.378 105.424C156.234 107.536 157.818 108.592 159.13 108.592C160.122 108.592 161.018 107.712 161.818 105.952C162.618 104.224 163.37 102.256 164.074 100.048C164.81 97.872 165.21 96.672 165.274 96.448C165.37 96.224 165.466 95.936 165.562 95.584C165.69 95.232 165.802 94.912 165.898 94.624C163.626 97.728 161.386 99.28 159.178 99.28C157.834 99.28 156.586 98.656 155.434 97.408C154.314 96.16 153.754 94.688 153.754 92.992C153.754 91.296 154.17 89.008 155.002 86.128C155.834 83.248 156.81 80.752 157.93 78.64C159.05 76.528 159.962 75.472 160.666 75.472C161.242 75.472 161.77 75.744 162.25 76.288C162.762 76.8 163.018 77.328 163.018 77.872C163.018 78.416 162.602 79.552 161.77 81.28C159.178 86.592 157.882 90.72 157.882 93.664C157.882 94.176 158.042 94.608 158.362 94.96C158.682 95.28 159.066 95.44 159.514 95.44C160.666 95.44 162.042 94.416 163.642 92.368C165.242 90.32 166.714 87.888 168.058 85.072C169.178 82.704 170.346 79.68 171.562 76C171.69 75.648 172.01 75.472 172.522 75.472Z" fill="#2F1973"/>
<path d="M15.7741 33.096C16.3501 33.096 17.3901 31.736 18.8941 29.016C20.4301 26.264 21.9821 23.512 23.5501 20.76C25.1501 18.008 26.2861 16.632 26.9581 16.632C27.6301 16.632 28.1741 16.872 28.5901 17.352C29.0061 17.832 29.2141 18.408 29.2141 19.08C29.2141 19.752 28.6061 21.096 27.3901 23.112C26.1741 25.128 24.5421 27.8 22.4941 31.128C20.4461 34.424 18.3981 38.008 16.3501 41.88C14.3021 45.752 12.8941 48.168 12.1261 49.128C11.3581 50.088 10.7341 50.568 10.2541 50.568C9.55013 50.568 9.19813 49.992 9.19813 48.84C9.19813 47.944 9.64613 46.584 10.5421 44.76C10.8301 44.216 11.0541 43.768 11.2141 43.416C11.3741 43.032 11.6301 42.504 11.9821 41.832C12.3341 41.16 12.6061 40.648 12.7981 40.296C12.9901 39.912 13.2781 39.336 13.6621 38.568C14.0781 37.768 14.3821 37.192 14.5741 36.84C12.6861 36.36 10.9421 35.176 9.34213 33.288C7.77413 31.368 6.57413 29.24 5.74213 26.904C4.91013 24.536 4.49413 22.232 4.49413 19.992C4.49413 17.752 5.13413 16.632 6.41412 16.632C6.92613 16.632 7.32613 17.128 7.61413 18.12C7.93413 19.112 8.31813 20.536 8.76613 22.392C9.21413 24.248 9.80613 25.96 10.5421 27.528C11.2781 29.064 12.1581 30.376 13.1821 31.464C14.2061 32.552 15.0701 33.096 15.7741 33.096ZM43.6715 34.632C43.6715 33.544 43.4955 32.52 43.1435 31.56C42.7915 30.568 42.2795 29.848 41.6075 29.4C39.3995 30.008 37.4955 31.72 35.8955 34.536C34.3275 37.32 33.5435 39.944 33.5435 42.408C33.5435 44.872 34.1515 46.408 35.3675 47.016C37.6715 46.568 39.6235 45 41.2235 42.312C42.8555 39.592 43.6715 37.032 43.6715 34.632ZM31.0475 35.064C32.1675 32.568 33.6235 30.52 35.4155 28.92C37.2395 27.288 39.0955 26.472 40.9835 26.472C42.9035 26.472 44.5035 27.288 45.7835 28.92C47.0635 30.52 47.7035 32.488 47.7035 34.824C47.7035 37.128 47.1435 39.496 46.0235 41.928C44.9035 44.328 43.3515 46.328 41.3675 47.928C39.4155 49.496 37.3355 50.28 35.1275 50.28C33.4955 50.28 32.1355 49.528 31.0475 48.024C29.9595 46.52 29.4155 44.616 29.4155 42.312C29.4155 39.976 29.9595 37.56 31.0475 35.064ZM67.9175 27.816C68.0455 27.304 68.1735 26.952 68.3015 26.76C68.4295 26.568 68.7015 26.472 69.1175 26.472C69.5655 26.472 70.0935 26.888 70.7015 27.72C71.3415 28.552 71.6615 29.352 71.6615 30.12C71.6615 30.536 70.9575 33 69.5495 37.512C68.1415 42.024 67.0535 45.608 66.2855 48.264C65.9015 49.608 65.3575 50.28 64.6535 50.28C64.2375 50.28 63.8855 50.104 63.5975 49.752C63.3095 49.4 63.1655 48.76 63.1655 47.832C63.1655 46.904 63.5335 45.224 64.2695 42.792C62.9255 44.968 61.4695 46.76 59.9015 48.168C58.3335 49.576 56.8935 50.28 55.5815 50.28C54.3015 50.28 53.0855 49.672 51.9335 48.456C50.7815 47.24 50.2055 45.992 50.2055 44.712C50.2055 41.672 51.0855 37.88 52.8455 33.336C54.6375 28.76 56.1255 26.472 57.3095 26.472C57.8855 26.472 58.3815 26.744 58.7975 27.288C59.2455 27.8 59.4695 28.392 59.4695 29.064C59.4695 29.352 59.0375 30.392 58.1735 32.184C57.3095 33.944 56.4455 36.024 55.5815 38.424C54.7175 40.792 54.2855 42.872 54.2855 44.664C54.2855 45.176 54.4455 45.608 54.7655 45.96C55.0855 46.28 55.4695 46.44 55.9175 46.44C57.1335 46.44 58.5735 45.368 60.2375 43.224C61.9335 41.08 63.4695 38.584 64.8455 35.736C66.2215 32.888 67.2455 30.248 67.9175 27.816ZM78.7389 41.928C81.8109 36.712 84.3069 32.84 86.2269 30.312C88.1789 27.752 89.7629 26.472 90.9789 26.472C92.2269 26.472 93.3949 27.128 94.4829 28.44C95.6029 29.752 96.1629 31.144 96.1629 32.616C96.1629 34.92 95.6349 37.736 94.5789 41.064C92.6589 47.208 90.9309 50.28 89.3949 50.28C88.6909 50.28 88.3389 49.8 88.3389 48.84C88.3389 48.168 88.6749 46.808 89.3469 44.76C90.0509 42.68 90.6909 40.648 91.2669 38.664C91.8749 36.648 92.1789 35.144 92.1789 34.152C92.1789 33.128 92.0189 32.376 91.6989 31.896C91.4109 31.416 91.1069 31.176 90.7869 31.176C90.4989 31.176 90.1949 31.272 89.8749 31.464C89.5549 31.656 89.1869 31.976 88.7709 32.424C88.3869 32.872 88.0189 33.32 87.6669 33.768C87.3149 34.184 86.8669 34.792 86.3229 35.592C85.8109 36.392 85.3789 37.08 85.0269 37.656C84.6749 38.2 84.1629 39 83.4909 40.056C82.8189 41.112 82.3069 41.912 81.9549 42.456C81.6029 43 81.1389 43.736 80.5629 44.664C79.9869 45.592 79.5229 46.312 79.1709 46.824C78.8509 47.336 78.4829 47.896 78.0669 48.504C77.2669 49.688 76.6269 50.28 76.1469 50.28C75.6989 50.28 75.1709 49.928 74.5629 49.224C73.9549 48.488 73.6509 47.848 73.6509 47.304C73.6509 47.144 73.7629 46.712 73.9869 46.008C74.5949 44.152 75.2669 41.864 76.0029 39.144C76.7389 36.392 77.1389 33.272 77.2029 29.784C77.2989 27.448 77.6349 26.28 78.2109 26.28C78.9149 26.28 79.6189 26.648 80.3229 27.384C81.0269 28.12 81.3789 28.936 81.3789 29.832C81.3789 30.696 81.1069 32.392 80.5629 34.92C80.0509 37.416 79.4429 39.752 78.7389 41.928ZM118.637 37.32C118.637 38.6 118.077 40.056 116.957 41.688C116.093 43.64 115.165 46.456 114.173 50.136C113.181 53.784 112.349 56.392 111.677 57.96C110.333 61.224 108.269 62.856 105.485 62.856C103.213 62.856 101.293 62.232 99.7246 60.984C98.1886 59.768 97.4206 58.552 97.4206 57.336C97.4206 56.824 97.5806 56.312 97.9006 55.8C98.1886 55.288 98.4926 55.032 98.8126 55.032C99.1646 55.032 99.5486 55.272 99.9646 55.752C100.381 56.232 100.765 56.744 101.117 57.288C101.501 57.864 102.061 58.392 102.797 58.872C103.565 59.352 104.301 59.592 105.005 59.592C105.709 59.592 106.237 59.48 106.589 59.256C106.941 59.064 107.277 58.728 107.597 58.248C107.917 57.8 108.189 57.336 108.413 56.856C108.637 56.408 108.877 55.752 109.133 54.888C109.421 54.056 109.645 53.336 109.805 52.728C109.965 52.12 110.189 51.272 110.477 50.184C110.765 49.064 111.005 48.168 111.197 47.496C108.701 49.352 106.669 50.28 105.101 50.28C103.533 50.28 102.173 49.656 101.021 48.408C99.8686 47.128 99.2926 45.656 99.2926 43.992C99.2926 42.296 99.9166 40.056 101.165 37.272C102.445 34.488 104.157 31.992 106.301 29.784C108.445 27.576 110.541 26.472 112.589 26.472C113.901 26.472 115.005 26.968 115.901 27.96C117.373 29.592 118.109 31.912 118.109 34.92C118.109 35.304 118.093 35.576 118.061 35.736C118.445 36.28 118.637 36.808 118.637 37.32ZM103.181 44.472C103.181 45.016 103.357 45.464 103.709 45.816C104.061 46.136 104.509 46.296 105.053 46.296C106.653 46.296 108.541 45.352 110.717 43.464C112.893 41.544 114.429 39.32 115.325 36.792C115.197 36.376 115.085 35.736 114.989 34.872C114.893 34.008 114.797 33.32 114.701 32.808C114.605 32.296 114.397 31.784 114.077 31.272C113.757 30.728 113.341 30.456 112.829 30.456C111.581 30.456 110.173 31.352 108.605 33.144C107.037 34.936 105.741 36.936 104.717 39.144C103.693 41.352 103.181 43.128 103.181 44.472Z" fill="#2F1973"/>
</svg>
